name C:\Users\r0593348\3dpredictsim\Results\MidTarsalJoint\Fal_s1_bCst_PF_Natali2010_ls150_MT_k200_MTP_T2_ig24.mot
datacolumns 128
datarows 4
range 0.57103092 0.60529277
endheader
time	pelvis_tilt	pelvis_list	pelvis_rotation	pelvis_tx	pelvis_ty	pelvis_tz	hip_flexion_l	hip_adduction_l	hip_rotation_l	hip_flexion_r	hip_adduction_r	hip_rotation_r	knee_angle_l	knee_angle_r	ankle_angle_l	ankle_angle_r	subtalar_angle_l	subtalar_angle_r	mtj_angle_l	mtj_angle_r	mtp_angle_l	mtp_angle_r	lumbar_extension	lumbar_bending	lumbar_rotation	arm_flex_l	arm_add_l	arm_rot_l	arm_flex_r	arm_add_r	arm_rot_r	elbow_flex_l	elbow_flex_r	pro_sup_l	pro_sup_r	glut_med1_l/activation	glut_med2_l/activation	glut_med3_l/activation	glut_min1_l/activation	glut_min2_l/activation	glut_min3_l/activation	semimem_l/activation	semiten_l/activation	bifemlh_l/activation	bifemsh_l/activation	sar_l/activation	add_long_l/activation	add_brev_l/activation	add_mag1_l/activation	add_mag2_l/activation	add_mag3_l/activation	tfl_l/activation	pect_l/activation	grac_l/activation	glut_max1_l/activation	glut_max2_l/activation	glut_max3_l/activation	iliacus_l/activation	psoas_l/activation	quad_fem_l/activation	gem_l/activation	peri_l/activation	rect_fem_l/activation	vas_med_l/activation	vas_int_l/activation	vas_lat_l/activation	med_gas_l/activation	lat_gas_l/activation	soleus_l/activation	tib_post_l/activation	flex_dig_l/activation	flex_hal_l/activation	tib_ant_l/activation	per_brev_l/activation	per_long_l/activation	per_tert_l/activation	ext_dig_l/activation	ext_hal_l/activation	ercspn_l/activation	intobl_l/activation	extobl_l/activation	glut_med1_r/activation	glut_med2_r/activation	glut_med3_r/activation	glut_min1_r/activation	glut_min2_r/activation	glut_min3_r/activation	semimem_r/activation	semiten_r/activation	bifemlh_r/activation	bifemsh_r/activation	sar_r/activation	add_long_r/activation	add_brev_r/activation	add_mag1_r/activation	add_mag2_r/activation	add_mag3_r/activation	tfl_r/activation	pect_r/activation	grac_r/activation	glut_max1_r/activation	glut_max2_r/activation	glut_max3_r/activation	iliacus_r/activation	psoas_r/activation	quad_fem_r/activation	gem_r/activation	peri_r/activation	rect_fem_r/activation	vas_med_r/activation	vas_int_r/activation	vas_lat_r/activation	med_gas_r/activation	lat_gas_r/activation	soleus_r/activation	tib_post_r/activation	flex_dig_r/activation	flex_hal_r/activation	tib_ant_r/activation	per_brev_r/activation	per_long_r/activation	per_tert_r/activation	ext_dig_r/activation	ext_hal_r/activation	ercspn_r/activation	intobl_r/activation	extobl_r/activation	
          0.57103092	         -2.92857554	          2.17762956	         -5.31476918	          0.71378865	          0.91905710	          0.00174633	         29.56794240	          3.36712042	         -2.24858498	        -16.48936924	         -0.98674123	          7.01553856	        -10.80492297	         -7.95908515	          5.73397688	         -2.56369777	         -5.21379866	          7.81879687	         -0.01794504	          6.96752713	         -0.89732697	          7.63981279	         -1.97050020	         -0.23057980	          2.11302398	         -4.94620486	        -13.46239232	          6.58000652	          5.24990334	        -13.45012158	         16.50157187	         16.84400032	         33.85293834	         86.51662706	         86.51662706	          0.08645452	          0.05000005	          0.05951721	          0.05000002	          0.05000003	          0.05000020	          0.22638404	          0.05951736	          0.08083356	          0.05000035	          0.05000016	          0.08560005	          0.18001692	          0.21221944	          0.15848812	          0.09952920	          0.05951724	          0.05000083	          0.12130366	          0.05951760	          0.06359725	          0.10771657	          0.05000001	          0.05000003	          0.25810411	          0.05069876	          0.05000014	          0.05000002	          0.05000136	          0.05000175	          0.05000052	          0.05951718	          0.05951718	          0.05951717	          0.05367172	          0.05000044	          0.05020520	          0.44022594	          0.27376277	          0.19530451	          0.07340305	          0.43927083	          0.05000066	          0.05951719	          0.14126940	          0.11948999	          0.32292619	          0.10751895	          0.08016889	          0.32017590	          0.21438652	          0.11948921	          0.05000024	          0.05000004	          0.05000003	          0.05929382	          0.11710154	          0.05000001	          0.05000001	          0.05000002	          0.05000009	          0.05000007	          0.33791312	          0.05000008	          0.05000007	          0.05018359	          0.05000197	          0.05000025	          0.42621328	          0.64297764	          0.05000005	          0.05000036	          0.06908209	          0.26365806	          0.05000058	          0.05000035	          0.05000028	          0.31246585	          0.42373266	          0.36147292	          0.26777645	          0.26098046	          0.34010930	          0.05000001	          0.05000132	          0.12610388	          0.05000006	          0.05000001	          0.05000007	          0.05000000	          0.05000000	          0.05000000	
          0.58245154	         -2.93017644	          2.26581123	         -5.61045021	          0.73081176	          0.91815728	          0.00155479	         28.98412549	          3.73423431	         -2.05331498	        -16.50710276	         -1.30195800	          6.83046233	        -10.84980996	         -9.60486130	          5.03257327	         -2.98590286	         -5.60328917	          8.84305691	         -0.06564048	          5.96973777	         -0.90260907	          9.51612280	         -1.78375766	         -0.42260641	          2.18824607	         -5.81436801	        -13.45640050	          6.36132984	          5.02088173	        -13.45542229	         16.87828560	         16.40995484	         35.02241685	         86.51662706	         86.51662706	          0.07262992	          0.05000052	          0.05000005	          0.05951729	          0.05951718	          0.05000022	          0.19018380	          0.05000016	          0.06790776	          0.05000007	          0.05000026	          0.11949032	          0.24912426	          0.22586971	          0.15790835	          0.09385692	          0.05000010	          0.07084676	          0.10190656	          0.05000039	          0.05342766	          0.10506492	          0.07084554	          0.06439333	          0.54706708	          0.17642806	          0.13899151	          0.08433086	          0.18246582	          0.18079625	          0.15668533	          0.05000000	          0.05000001	          0.05000000	          0.05000003	          0.05000039	          0.05000025	          0.50960431	          0.26955307	          0.16407633	          0.18977300	          0.47196904	          0.05951731	          0.05000001	          0.11867951	          0.10038278	          0.27128825	          0.09032598	          0.06734938	          0.26897774	          0.18010475	          0.10038213	          0.05000102	          0.05000021	          0.05000026	          0.05000013	          0.09837630	          0.07805072	          0.06928199	          0.05000818	          0.05000246	          0.05000609	          0.28387868	          0.05729172	          0.05000152	          0.05000089	          0.05000063	          0.05000071	          0.35805905	          0.54939360	          0.05000023	          0.05000302	          0.05951717	          0.22149745	          0.05000074	          0.08878622	          0.13769582	          0.26250055	          0.35597511	          0.33063327	          0.24332695	          0.21924853	          0.29091206	          0.05000001	          0.05000020	          0.11884441	          0.05000008	          0.05000002	          0.05000010	          0.05000000	          0.07287023	          0.05587234	
          0.59387216	         -2.92814186	          2.35446457	         -5.87646191	          0.74820105	          0.91730075	          0.00137980	         28.27837878	          4.03735692	         -1.79496398	        -16.47723022	         -1.61767067	          6.63909188	        -11.28749223	        -11.32475332	          4.34066685	         -3.51290365	         -5.99272404	          9.84267194	         -0.24222829	          4.75792817	         -0.89436232	         11.60838058	         -1.57240992	         -0.62610999	          2.25306847	         -6.72213695	        -13.45511743	          6.18055775	          4.70037737	        -13.45925323	         17.17037450	         16.03395784	         36.18034995	         86.51662706	         86.51662706	          0.22074269	          0.05000002	          0.17496563	          0.05000011	          0.05000004	          0.05000008	          0.17773420	          0.08849368	          0.07864478	          0.05000005	          0.05000123	          0.10038307	          0.20928772	          0.18975175	          0.13265787	          0.09832379	          0.05000015	          0.05951840	          0.09811236	          0.05000018	          0.05311790	          0.08826441	          0.05951713	          0.05915727	          0.45958753	          0.14821609	          0.11676596	          0.07084581	          0.15328837	          0.15188577	          0.13163034	          0.05495457	          0.05700422	          0.05441873	          0.05000169	          0.05000022	          0.05000024	          0.42811533	          0.25844113	          0.16094920	          0.15942708	          0.55421659	          0.05000012	          0.05000000	          0.12123357	          0.08433092	          0.32291588	          0.07588228	          0.05657980	          0.22596651	          0.15130486	          0.08433040	          0.05000076	          0.05000027	          0.05000017	          0.05000005	          0.08264536	          0.10568773	          0.05951758	          0.05951732	          0.05951729	          0.05951724	          0.23848480	          0.06117340	          0.05543547	          0.05000240	          0.05000476	          0.05951698	          0.30119413	          0.55103856	          0.05951682	          0.05000041	          0.05000004	          0.18607859	          0.14152624	          0.07458895	          0.11567758	          0.22052501	          0.29905240	          0.27776288	          0.20441743	          0.18418934	          0.24439341	          0.05000000	          0.05000012	          0.15072257	          0.05000002	          0.05000000	          0.05000003	          0.05000005	          0.06121781	          0.05951727	
          0.60529277	         -2.92386310	          2.44487947	         -6.10676766	          0.76580699	          0.91651177	          0.00120735	         27.45619784	          4.28500395	         -1.52658786	        -16.37660500	         -1.93007513	          6.44684956	        -11.70417923	        -13.13793642	          3.66447322	         -4.16916857	         -6.39023050	         10.79746071	         -0.20053570	          3.37466539	         -0.86158848	         13.85290046	         -1.35130212	         -0.84192716	          2.30771101	         -7.63387451	        -13.45920153	          6.05272434	          4.30852040	        -13.46360964	         17.38608887	         15.69712024	         37.32084836	         86.51662706	         86.51662706	          0.29422378	          0.25252787	          0.30497322	          0.18201173	          0.19183206	          0.16959957	          0.14931336	          0.07434302	          0.06606898	          0.08433074	          0.05000071	          0.08433118	          0.17582127	          0.15940928	          0.11144510	          0.12301965	          0.05000019	          0.05000117	          0.08242435	          0.18220623	          0.13859880	          0.09685690	          0.05000003	          0.05000002	          0.38609653	          0.12451542	          0.13366969	          0.05951712	          0.12877662	          0.12759834	          0.11058185	          0.05000007	          0.05000020	          0.05000000	          0.05000001	          0.05000008	          0.05000010	          0.54794841	          0.33899679	          0.18306124	          0.45846231	          0.50047314	          0.22226580	          0.06998473	          0.10402144	          0.07084587	          0.29945066	          0.06374823	          0.05000002	          0.36446224	          0.12711027	          0.07084545	          0.05000048	          0.05000004	          0.05000003	          0.05000012	          0.07084657	          0.08878766	          0.05000036	          0.05000017	          0.05000025	          0.05000016	          0.22744903	          0.05139168	          0.05000013	          0.05000039	          0.05000020	          0.05000012	          0.25614527	          0.52367472	          0.05000002	          0.05000017	          0.05000013	          0.15632349	          0.14059796	          0.06266177	          0.12043282	          0.18526164	          0.25123199	          0.23334680	          0.17172977	          0.15473631	          0.20531336	          0.05238826	          0.05766540	          0.16080166	          0.05000026	          0.09551748	          0.05000020	          0.05854863	          0.05142869	          0.05000008	
